# Blender v2.78 (sub 0) OBJ File: 'light_room.blend'
# www.blender.org
mtllib light_room.mtl
o room_Cube.001
v 0.716037 0.809262 -0.747797
v 0.716037 0.890494 -0.747797
v 0.659774 0.809262 -0.747085
v 0.659774 0.890494 -0.747085
v 0.711780 0.809262 -1.084066
v 0.711780 0.890494 -1.084066
v 0.655517 0.809262 -1.083354
v 0.655517 0.890494 -1.083354
v 0.716749 0.583018 -0.691534
v 0.716749 1.043960 -0.691534
v 0.660486 0.583018 -0.690822
v 0.660486 1.043960 -0.690822
v 0.716037 0.583018 -0.747797
v 0.716037 1.043960 -0.747797
v 0.659774 0.583018 -0.747085
v 0.659774 1.043960 -0.747085
v 0.711780 0.586256 -1.084066
v 0.711780 1.047199 -1.084066
v 0.655517 0.586256 -1.083354
v 0.655517 1.047199 -1.083354
v 0.711067 0.586256 -1.140329
v 0.711068 1.047199 -1.140329
v 0.654805 0.586256 -1.139617
v 0.654805 1.047199 -1.139617
v 1.104312 0.196907 -1.089036
v 1.104312 0.505024 -1.089036
v 1.048049 0.196907 -1.088324
v 1.048049 0.505024 -1.088324
v 1.103600 0.196907 -1.145299
v 1.103600 0.505024 -1.145299
v 1.047337 0.196907 -1.144586
v 1.047337 0.505024 -1.144586
v 0.716749 0.205858 -0.691534
v 0.716749 0.513976 -0.691534
v 0.660486 0.205858 -0.690822
v 0.660486 0.513976 -0.690822
v 0.716037 0.205858 -0.747797
v 0.716037 0.513976 -0.747797
v 0.659774 0.205858 -0.747085
v 0.659774 0.513976 -0.747085
v 0.711780 0.196907 -1.084066
v 0.711780 0.505024 -1.084066
v 0.655517 0.196907 -1.083354
v 0.655517 0.505024 -1.083354
v 0.711067 0.196907 -1.140329
v 0.711068 0.505024 -1.140329
v 0.654805 0.196907 -1.139617
v 0.654805 0.505024 -1.139617
v 1.109281 0.196907 -0.696504
v 1.109281 0.505024 -0.696504
v 1.053018 0.196907 -0.695792
v 1.053019 0.505024 -0.695792
v 1.108569 0.196907 -0.752767
v 1.108569 0.505024 -0.752767
v 1.052306 0.196907 -0.752054
v 1.052306 0.505024 -0.752054
v 1.109281 0.505024 -0.696504
v 1.109281 0.586256 -0.696504
v 0.660486 0.505024 -0.690822
v 0.660486 0.586256 -0.690822
v 1.103600 0.505024 -1.145299
v 1.103600 0.586256 -1.145299
v 0.654805 0.505024 -1.139617
v 0.654805 0.586256 -1.139617
v 1.538395 0.195334 -0.166240
v 1.538395 0.853522 -0.166240
v 1.454441 0.195334 -0.165177
v 1.454441 0.853522 -0.165177
v 1.537466 0.195334 -0.239631
v 1.537466 0.853522 -0.239631
v 1.453511 0.195334 -0.238568
v 1.453511 0.853522 -0.238568
v 2.286340 0.195334 -1.622566
v 2.286340 0.853522 -1.622566
v 2.202385 0.195334 -1.621503
v 2.202385 0.853522 -1.621503
v 2.285411 0.195334 -1.695957
v 2.285411 0.853522 -1.695957
v 2.201456 0.195334 -1.694894
v 2.201456 0.853522 -1.694894
v 1.520081 0.195334 -1.612865
v 1.520081 0.853522 -1.612865
v 1.436126 0.195334 -1.611802
v 1.436126 0.853522 -1.611802
v 1.519152 0.195334 -1.686256
v 1.519152 0.853522 -1.686256
v 1.435197 0.195334 -1.685193
v 1.435197 0.853522 -1.685193
v 2.304654 0.195334 -0.175941
v 2.304654 0.853522 -0.175941
v 2.220700 0.195334 -0.174878
v 2.220700 0.853522 -0.174878
v 2.303725 0.195334 -0.249332
v 2.303725 0.853522 -0.249332
v 2.219770 0.195334 -0.248269
v 2.219770 0.853522 -0.248269
v 2.304654 0.946866 -0.175941
v 2.304654 0.853522 -0.175941
v 1.454441 0.946866 -0.165177
v 1.454441 0.853522 -0.165177
v 2.285411 0.946866 -1.695957
v 2.285411 0.853522 -1.695957
v 1.435197 0.946866 -1.685193
v 1.435197 0.853522 -1.685193
v -2.574925 -0.195334 2.574925
v -2.574925 0.195334 2.574925
v -2.574925 -0.195334 -2.574925
v -2.574925 0.195334 -2.574925
v 2.574925 -0.195334 2.574925
v 2.574925 0.195334 2.574925
v 2.574925 -0.195334 -2.574925
v 2.574925 0.195334 -2.574925
v 2.358308 -0.195334 -2.574925
v -2.358308 -0.195334 -2.574925
v -2.358308 0.195334 -2.574925
v 2.358308 0.195334 -2.574925
v -2.358308 -0.195334 2.574925
v 2.358308 -0.195334 2.574925
v 2.358308 0.195334 2.574925
v -2.358308 0.195334 2.574925
v -2.574925 2.695334 2.574925
v -2.574925 2.695334 -2.574925
v -2.358308 2.695334 2.574925
v -2.358308 2.695334 -2.574925
v 2.358308 2.695334 -2.574925
v 2.574925 2.695334 -2.574925
v 2.574925 2.695334 2.574925
v 2.358308 2.695334 2.574925
v 0.786103 -0.195334 -2.574925
v -0.786103 -0.195334 -2.574925
v -0.786103 0.195334 -2.574925
v 0.786103 0.195334 -2.574925
v -0.786103 -0.195334 2.574925
v 0.786103 -0.195334 2.574925
v 0.786103 0.195334 2.574925
v -0.786103 0.195334 2.574925
v -2.574925 -0.195334 2.174838
v -2.574925 0.195334 2.174838
v 2.574925 -0.195334 2.174838
v 2.574925 0.195334 2.174838
v 2.358308 0.195334 2.174838
v -2.358308 0.195334 2.174838
v -2.358308 -0.195334 2.174838
v 2.358308 -0.195334 2.174838
v -2.574925 2.695334 2.174838
v -2.358308 2.695334 2.174838
v 2.574925 2.695334 2.174838
v 2.358308 2.695334 2.174838
v -0.786103 -0.195334 2.174838
v 0.786103 -0.195334 2.174838
v 0.786103 0.195334 2.174838
v -0.786103 0.195334 2.174838
v -2.574925 0.195334 -2.319038
v 2.574925 -0.195334 -2.319038
v -2.574925 2.695334 -2.319038
v -2.574925 -0.195334 -2.319038
v 2.574925 0.195334 -2.319038
v 2.358308 0.195334 -2.319038
v -2.358308 0.195334 -2.319038
v -2.358308 -0.195334 -2.319038
v 2.358308 -0.195334 -2.319038
v -2.358308 2.695334 -2.319038
v 2.574925 2.695334 -2.319038
v 2.358308 2.695334 -2.319038
v -0.786103 -0.195334 -2.319038
v 0.786103 -0.195334 -2.319038
v 0.786103 0.195334 -2.319038
v -0.786103 0.195334 -2.319038
v -2.358308 2.445334 -2.574925
v -2.358308 2.445334 2.574925
v -2.574925 2.445334 2.574925
v -2.574925 2.445334 -2.574925
v -2.574925 2.445334 2.174838
v -2.358308 2.445334 2.174838
v -2.574925 2.445334 -2.319038
v -2.358308 2.445334 -2.319038
v 2.574925 2.445334 -2.574925
v 2.574925 2.445334 2.574925
v 2.358308 2.445334 2.574925
v 2.358308 2.445334 -2.574925
v 2.358308 2.445334 2.174838
v 2.574925 2.445334 2.174838
v 2.358308 2.445334 -2.319038
v 2.574925 2.445334 -2.319038
v 0.786103 2.445334 -2.574925
v 2.358308 2.445334 -2.574925
v 2.358308 2.445334 -2.319038
v 0.786103 2.445334 -2.319038
v -2.358308 2.445335 -2.574925
v -0.786103 2.445335 -2.574925
v 0.786103 2.445335 -2.574925
v -2.358308 2.445335 -2.319038
v 0.786103 2.445335 -2.319038
v -0.786103 2.445335 -2.319038
v 2.358308 2.445334 2.174838
v 2.358308 2.445334 2.574925
v 0.786103 2.445334 2.574925
v 0.786103 2.445334 2.174838
v -0.786103 2.445334 2.574925
v -2.358308 2.445334 2.574925
v -2.358308 2.445334 2.174838
v -0.786103 2.445334 2.174838
v 2.358308 2.695334 2.174838
v 2.358308 2.695334 2.574925
v 2.358308 2.445334 2.174838
v 2.358308 2.445334 2.574925
v -2.574925 2.198410 -0.357529
v -2.358308 2.198410 -0.357529
v -2.574925 1.483353 0.357529
v -2.358308 1.483353 0.357529
v -2.574925 2.198410 0.357529
v -2.358308 2.198410 0.357529
v -2.574925 1.483353 -0.357529
v -2.358308 1.483353 -0.357529
v -2.358308 2.198410 1.035529
v -2.574925 2.198410 1.035529
v -2.358308 1.483353 1.750586
v -2.574925 1.483353 1.750587
v -2.358308 2.198410 1.750586
v -2.574925 2.198410 1.750587
v -2.358308 1.483353 1.035529
v -2.574925 1.483353 1.035529
v -2.358308 2.198410 -1.779329
v -2.574925 2.198410 -1.779329
v -2.358308 1.483353 -1.064272
v -2.574925 1.483353 -1.064272
v -2.574925 1.829960 -1.064272
v -2.358308 1.829960 -1.064272
v -2.358308 2.198410 -1.064272
v -2.574925 2.198410 -1.064272
v -2.358308 1.483353 -1.779329
v -2.574925 1.483353 -1.779329
v -2.358308 2.180645 -1.779329
v -2.574925 2.180645 -1.779329
vn -1.0000 0.0000 0.0000
vn 0.0000 0.0000 -1.0000
vn 1.0000 0.0000 0.0000
vn 0.0000 0.0000 1.0000
vn 0.0000 -1.0000 0.0000
vn 0.0000 1.0000 0.0000
vn 0.0127 0.0000 0.9999
vn -0.9999 0.0000 0.0127
vn -0.0127 0.0000 -0.9999
vn 0.9999 0.0000 -0.0127
usemtl wall
s off
f 153//1 107//1 156//1
f 116//2 111//2 113//2
f 140//3 109//3 139//3
f 120//4 105//4 117//4
f 139//5 118//5 144//5
f 169//3 162//3 176//3
f 177//3 163//3 184//3
f 120//1 201//1 142//1
f 143//5 105//5 137//5
f 144//5 134//5 150//5
f 110//4 118//4 109//4
f 136//4 117//4 133//4
f 108//2 114//2 107//2
f 132//2 113//2 129//2
f 145//6 123//6 146//6
f 171//1 145//1 173//1
f 170//4 121//4 171//4
f 172//2 124//2 169//2
f 148//6 127//6 147//6
f 179//1 148//1 181//1
f 178//4 128//4 179//4
f 180//2 126//2 177//2
f 115//2 130//2 114//2
f 131//2 129//2 130//2
f 119//4 134//4 118//4
f 135//4 133//4 134//4
f 149//5 117//5 143//5
f 150//5 133//5 149//5
f 119//4 197//4 135//4
f 152//6 135//6 151//6
f 168//6 151//6 167//6
f 167//6 141//6 158//6
f 166//5 149//5 165//5
f 165//5 143//5 160//5
f 181//1 164//1 183//1
f 164//6 147//6 163//6
f 173//1 155//1 175//1
f 155//6 146//6 162//6
f 161//5 150//5 166//5
f 160//5 137//5 156//5
f 159//6 152//6 168//6
f 182//3 127//3 178//3
f 170//4 204//4 123//4
f 154//5 144//5 161//5
f 157//3 139//3 154//3
f 106//1 137//1 105//1
f 112//3 154//3 111//3
f 111//5 161//5 113//5
f 159//1 189//1 115//1
f 114//5 156//5 107//5
f 113//5 166//5 129//5
f 122//6 162//6 124//6
f 175//1 122//1 172//1
f 125//6 163//6 126//6
f 183//1 125//1 180//1
f 130//5 160//5 114//5
f 129//5 165//5 130//5
f 132//2 186//2 116//2
f 167//4 194//4 168//4
f 184//3 147//3 182//3
f 176//3 146//3 174//3
f 138//1 156//1 137//1
f 142//3 214//3 210//3
f 153//1 172//1 108//1
f 142//3 170//3 120//3
f 153//1 213//1 226//1
f 108//2 169//2 115//2
f 120//4 171//4 106//4
f 106//1 173//1 138//1
f 115//3 176//3 159//3
f 157//3 182//3 140//3
f 158//1 180//1 116//1
f 140//3 178//3 110//3
f 141//1 183//1 158//1
f 116//2 177//2 112//2
f 110//4 179//4 119//4
f 119//1 181//1 141//1
f 112//3 184//3 157//3
f 185//6 187//6 186//6
f 116//3 187//3 158//3
f 158//4 188//4 167//4
f 167//1 185//1 132//1
f 189//6 194//6 190//6
f 190//6 193//6 191//6
f 115//2 190//2 131//2
f 168//4 192//4 159//4
f 132//3 193//3 167//3
f 131//2 191//2 132//2
f 198//6 196//6 195//6
f 151//2 195//2 141//2
f 141//3 196//3 119//3
f 135//1 198//1 151//1
f 201//6 199//6 202//6
f 136//4 200//4 120//4
f 152//3 199//3 136//3
f 142//2 202//2 152//2
f 205//3 204//3 206//3
f 174//5 206//5 170//5
f 146//2 205//2 174//2
f 123//6 203//6 146//6
f 192//5 205//5 201//5
f 162//6 203//6 164//6
f 162//2 187//2 192//2
f 162//6 125//6 124//6
f 180//2 124//2 125//2
f 175//1 230//1 207//1
f 208//3 229//3 176//3
f 214//4 207//4 213//4
f 210//6 213//6 209//6
f 209//2 212//2 210//2
f 211//5 208//5 212//5
f 216//1 173//1 211//1
f 215//3 210//3 212//3
f 221//4 216//4 222//4
f 217//6 222//6 218//6
f 218//2 219//2 217//2
f 219//5 216//5 215//5
f 233//4 224//4 234//4
f 225//6 232//6 226//6
f 227//2 229//2 228//2
f 230//5 223//5 229//5
f 153//1 108//1 107//1
f 116//2 112//2 111//2
f 140//3 110//3 109//3
f 120//4 106//4 105//4
f 139//5 109//5 118//5
f 169//3 124//3 162//3
f 177//3 126//3 163//3
f 120//1 200//1 201//1
f 143//5 117//5 105//5
f 144//5 118//5 134//5
f 110//4 119//4 118//4
f 136//4 120//4 117//4
f 108//2 115//2 114//2
f 132//2 116//2 113//2
f 145//6 121//6 123//6
f 171//1 121//1 145//1
f 170//4 123//4 121//4
f 172//2 122//2 124//2
f 148//6 128//6 127//6
f 179//1 128//1 148//1
f 178//4 127//4 128//4
f 180//2 125//2 126//2
f 115//2 131//2 130//2
f 131//2 132//2 129//2
f 119//4 135//4 134//4
f 135//4 136//4 133//4
f 149//5 133//5 117//5
f 150//5 134//5 133//5
f 119//4 196//4 197//4
f 152//6 136//6 135//6
f 168//6 152//6 151//6
f 167//6 151//6 141//6
f 166//5 150//5 149//5
f 165//5 149//5 143//5
f 181//1 148//1 164//1
f 164//6 148//6 147//6
f 173//1 145//1 155//1
f 155//6 145//6 146//6
f 161//5 144//5 150//5
f 160//5 143//5 137//5
f 159//6 142//6 152//6
f 182//3 147//3 127//3
f 170//4 206//4 204//4
f 154//5 139//5 144//5
f 157//3 140//3 139//3
f 106//1 138//1 137//1
f 112//3 157//3 154//3
f 111//5 154//5 161//5
f 159//1 192//1 189//1
f 114//5 160//5 156//5
f 113//5 161//5 166//5
f 122//6 155//6 162//6
f 175//1 155//1 122//1
f 125//6 164//6 163//6
f 183//1 164//1 125//1
f 130//5 165//5 160//5
f 129//5 166//5 165//5
f 132//2 185//2 186//2
f 167//4 193//4 194//4
f 184//3 163//3 147//3
f 176//3 162//3 146//3
f 138//1 153//1 156//1
f 159//3 176//3 231//3
f 176//3 233//3 231//3
f 219//3 174//3 217//3
f 210//3 221//3 142//3
f 217//3 174//3 142//3
f 142//3 159//3 214//3
f 225//3 228//3 214//3
f 159//3 231//3 225//3
f 221//3 217//3 142//3
f 159//3 225//3 214//3
f 153//1 175//1 172//1
f 142//3 174//3 170//3
f 138//1 173//1 218//1
f 218//1 222//1 138//1
f 173//1 220//1 218//1
f 234//1 175//1 232//1
f 232//1 175//1 153//1
f 153//1 138//1 213//1
f 222//1 209//1 138//1
f 226//1 232//1 153//1
f 213//1 227//1 226//1
f 138//1 209//1 213//1
f 108//2 172//2 169//2
f 120//4 170//4 171//4
f 106//1 171//1 173//1
f 115//3 169//3 176//3
f 157//3 184//3 182//3
f 158//1 183//1 180//1
f 140//3 182//3 178//3
f 141//1 181//1 183//1
f 116//2 180//2 177//2
f 110//4 178//4 179//4
f 119//1 179//1 181//1
f 112//3 177//3 184//3
f 185//6 188//6 187//6
f 116//3 186//3 187//3
f 158//4 187//4 188//4
f 167//1 188//1 185//1
f 189//6 192//6 194//6
f 190//6 194//6 193//6
f 115//2 189//2 190//2
f 168//4 194//4 192//4
f 132//3 191//3 193//3
f 131//2 190//2 191//2
f 198//6 197//6 196//6
f 151//2 198//2 195//2
f 141//3 195//3 196//3
f 135//1 197//1 198//1
f 201//6 200//6 199//6
f 136//4 199//4 200//4
f 152//3 202//3 199//3
f 142//2 201//2 202//2
f 205//3 203//3 204//3
f 174//5 205//5 206//5
f 146//2 203//2 205//2
f 123//6 204//6 203//6
f 192//5 187//5 205//5
f 162//6 146//6 203//6
f 162//2 164//2 187//2
f 162//6 164//6 125//6
f 180//2 189//2 124//2
f 175//1 234//1 224//1
f 230//1 227//1 207//1
f 175//1 224//1 230//1
f 211//1 173//1 207//1
f 227//1 213//1 207//1
f 207//1 173//1 175//1
f 176//3 174//3 208//3
f 208//3 214//3 228//3
f 174//3 212//3 208//3
f 223//3 233//3 176//3
f 208//3 228//3 229//3
f 229//3 223//3 176//3
f 214//4 208//4 207//4
f 210//6 214//6 213//6
f 209//2 211//2 212//2
f 211//5 207//5 208//5
f 211//1 209//1 222//1
f 216//1 220//1 173//1
f 211//1 222//1 216//1
f 174//3 219//3 215//3
f 215//3 221//3 210//3
f 212//3 174//3 215//3
f 221//4 215//4 216//4
f 217//6 221//6 222//6
f 218//2 220//2 219//2
f 219//5 220//5 216//5
f 234//4 232//4 231//4
f 233//4 223//4 224//4
f 234//4 231//4 233//4
f 225//6 231//6 232//6
f 228//2 225//2 226//2
f 227//2 230//2 229//2
f 228//2 226//2 227//2
f 230//5 224//5 223//5
usemtl wood_chair
f 1//7 4//7 3//7
f 4//8 7//8 3//8
f 8//9 5//9 7//9
f 6//10 1//10 5//10
f 7//5 1//5 3//5
f 4//6 6//6 8//6
f 10//7 11//7 9//7
f 12//8 15//8 11//8
f 16//9 13//9 15//9
f 14//10 9//10 13//10
f 11//5 13//5 9//5
f 12//6 14//6 16//6
f 18//7 19//7 17//7
f 20//8 23//8 19//8
f 24//9 21//9 23//9
f 22//10 17//10 21//10
f 19//5 21//5 17//5
f 20//6 22//6 24//6
f 25//7 28//7 27//7
f 28//8 31//8 27//8
f 32//9 29//9 31//9
f 30//10 25//10 29//10
f 27//5 29//5 25//5
f 28//6 30//6 32//6
f 34//7 35//7 33//7
f 36//8 39//8 35//8
f 40//9 37//9 39//9
f 38//10 33//10 37//10
f 35//5 37//5 33//5
f 36//6 38//6 40//6
f 42//7 43//7 41//7
f 44//8 47//8 43//8
f 48//9 45//9 47//9
f 46//10 41//10 45//10
f 43//5 45//5 41//5
f 44//6 46//6 48//6
f 49//7 52//7 51//7
f 52//8 55//8 51//8
f 56//9 53//9 55//9
f 54//10 49//10 53//10
f 55//5 49//5 51//5
f 56//6 50//6 54//6
f 58//7 59//7 57//7
f 60//8 63//8 59//8
f 64//9 61//9 63//9
f 62//10 57//10 61//10
f 63//5 57//5 59//5
f 60//6 62//6 64//6
f 1//7 2//7 4//7
f 4//8 8//8 7//8
f 8//9 6//9 5//9
f 6//10 2//10 1//10
f 7//5 5//5 1//5
f 4//6 2//6 6//6
f 10//7 12//7 11//7
f 12//8 16//8 15//8
f 16//9 14//9 13//9
f 14//10 10//10 9//10
f 11//5 15//5 13//5
f 12//6 10//6 14//6
f 18//7 20//7 19//7
f 20//8 24//8 23//8
f 24//9 22//9 21//9
f 22//10 18//10 17//10
f 19//5 23//5 21//5
f 20//6 18//6 22//6
f 25//7 26//7 28//7
f 28//8 32//8 31//8
f 32//9 30//9 29//9
f 30//10 26//10 25//10
f 27//5 31//5 29//5
f 28//6 26//6 30//6
f 34//7 36//7 35//7
f 36//8 40//8 39//8
f 40//9 38//9 37//9
f 38//10 34//10 33//10
f 35//5 39//5 37//5
f 36//6 34//6 38//6
f 42//7 44//7 43//7
f 44//8 48//8 47//8
f 48//9 46//9 45//9
f 46//10 42//10 41//10
f 43//5 47//5 45//5
f 44//6 42//6 46//6
f 49//7 50//7 52//7
f 52//8 56//8 55//8
f 56//9 54//9 53//9
f 54//10 50//10 49//10
f 55//5 53//5 49//5
f 56//6 52//6 50//6
f 58//7 60//7 59//7
f 60//8 64//8 63//8
f 64//9 62//9 61//9
f 62//10 58//10 57//10
f 63//5 61//5 57//5
f 60//6 58//6 62//6
usemtl wood_table
f 66//7 67//7 65//7
f 68//8 71//8 67//8
f 72//9 69//9 71//9
f 70//10 65//10 69//10
f 65//6 71//6 67//6
f 72//6 66//6 70//6
f 74//7 75//7 73//7
f 76//8 79//8 75//8
f 80//9 77//9 79//9
f 73//8 78//8 77//8
f 73//6 79//6 75//6
f 76//6 78//6 80//6
f 82//7 83//7 81//7
f 84//8 87//8 83//8
f 88//9 85//9 87//9
f 86//10 81//10 85//10
f 81//6 87//6 83//6
f 88//6 82//6 86//6
f 90//7 91//7 89//7
f 92//8 95//8 91//8
f 96//9 93//9 95//9
f 89//8 94//8 93//8
f 89//6 95//6 91//6
f 96//6 90//6 94//6
f 99//7 98//7 97//7
f 103//8 100//8 99//8
f 101//9 104//9 103//9
f 102//8 97//8 101//8
f 97//6 103//6 99//6
f 104//5 98//5 100//5
f 66//7 68//7 67//7
f 68//8 72//8 71//8
f 72//9 70//9 69//9
f 70//10 66//10 65//10
f 65//6 69//6 71//6
f 72//6 68//6 66//6
f 74//7 76//7 75//7
f 76//8 80//8 79//8
f 80//9 78//9 77//9
f 73//8 74//8 78//8
f 73//6 77//6 79//6
f 76//6 74//6 78//6
f 82//7 84//7 83//7
f 84//8 88//8 87//8
f 88//9 86//9 85//9
f 86//10 82//10 81//10
f 81//6 85//6 87//6
f 88//6 84//6 82//6
f 90//7 92//7 91//7
f 92//8 96//8 95//8
f 96//9 94//9 93//9
f 89//8 90//8 94//8
f 89//6 93//6 95//6
f 96//6 92//6 90//6
f 99//7 100//7 98//7
f 103//8 104//8 100//8
f 101//9 102//9 104//9
f 102//8 98//8 97//8
f 97//6 101//6 103//6
f 104//5 102//5 98//5
