# Blender v2.78 (sub 0) OBJ File: ''
# www.blender.org
mtllib lowpoly_monkey.mtl
o Suzanne
v 0.546875 0.054688 0.578125
v -0.546875 0.054688 0.578125
v -0.348823 -0.039891 0.626154
v 0.348823 -0.039891 0.626154
v 0.243436 0.183277 0.809088
v 0.156250 0.054688 0.648438
v -0.156250 0.054688 0.648438
v -0.066086 0.241075 0.663968
v 0.065623 0.241473 0.664332
v 0.296268 0.364523 0.805121
v 0.156250 0.437500 0.648438
v -0.156250 0.437500 0.648438
v 0.351562 0.515625 0.617188
v -0.351562 0.515625 0.617188
v -0.293751 0.363527 0.805224
v -0.466618 0.309081 0.768140
v 0.546875 0.437500 0.578125
v -0.546875 0.437500 0.578125
v 0.633369 0.242106 0.566534
v -0.633263 0.242030 0.566494
v 0.467091 0.308394 0.768123
v -0.243136 0.183168 0.809604
v 0.411605 0.129821 0.794655
v -0.411605 0.129821 0.794655
v 0.000000 -0.187500 0.796875
v 0.000000 0.898438 -0.546875
v 0.000000 0.562500 -0.851562
v 0.000000 -0.382812 -0.351562
v -0.223717 -0.193371 0.529801
v 0.223095 -0.182572 0.537520
v -0.364485 -0.934935 0.527463
v 0.356416 -0.923432 0.574956
v 0.561106 -0.083400 0.569124
v -0.574942 -0.088264 0.540223
v 0.841731 0.416465 0.572731
v -0.852831 0.421193 0.588270
v 0.253604 0.768544 0.746560
v -0.253433 0.768836 0.748109
v -0.000467 0.418818 0.744456
v 0.207694 0.152361 0.750915
v 0.611977 0.172832 0.665211
v 0.572695 0.365439 0.688196
v -0.261609 0.481956 0.761877
v 0.306832 0.476701 0.752781
v -0.065975 -0.766156 0.731715
v 0.000000 -0.195312 0.750000
v 0.000000 -0.140625 0.742188
v 0.109622 -0.127367 0.784855
v -0.539893 -0.002377 0.638478
v -0.730324 0.381592 0.681374
v 0.701861 0.406364 0.701875
v -0.248244 0.648821 0.854577
v 0.252976 0.656178 0.850654
v -0.006031 0.325982 0.829469
v -0.091305 -0.118257 0.792388
v 0.141460 -0.238190 0.733421
v -0.272967 -0.886192 0.649776
v 0.017284 -0.984477 0.591458
v -0.102173 0.130465 0.742287
v -0.130561 -0.226255 0.812502
v 0.031197 -0.157521 0.822140
v 0.130492 -0.225592 0.812825
v -0.003510 -0.332462 0.762465
v -0.138343 -0.242680 0.731990
v -0.041734 -0.889264 0.690190
v 0.106373 -0.758092 0.730323
v -0.077083 -0.830486 0.631675
v 0.093144 -0.792467 0.647164
v -0.412973 0.388532 0.752534
v -0.574115 0.365077 0.686721
v -0.543159 0.212734 0.683209
v -0.460760 0.120128 0.707842
v -0.374026 0.085633 0.727129
v 0.198150 0.304100 0.760369
v -0.196071 0.294624 0.761091
v 0.293952 0.398592 0.778324
v 0.242188 0.125000 0.757812
v 0.373829 0.086535 0.728236
v 0.460938 0.117188 0.703125
v 0.546875 0.210938 0.671875
v -0.546850 0.292564 0.686891
v 0.551672 0.288132 0.675783
v 0.411560 0.390627 0.752042
v -0.280962 0.396572 0.770937
v -0.227140 0.134763 0.760223
v 0.053740 0.428979 0.616572
v -0.121205 0.483398 0.607582
v -0.261462 0.709033 0.606235
v 0.260303 0.708855 0.607407
v -0.457458 0.528564 0.474708
v -0.711654 0.400774 0.307327
v -0.803836 0.161472 0.420019
v -0.436074 -0.104066 0.453043
v 0.785346 0.119346 0.417886
v 0.000000 0.898438 0.289062
v 0.000000 0.984375 -0.078125
v -0.011619 -0.075160 -0.779360
v -0.795840 0.041023 0.158112
v -0.831749 0.350337 -0.387405
v -0.490828 0.417757 -0.691108
v 0.814251 0.064879 0.177529
v 0.533910 0.047078 -0.538381
v -0.738105 -0.086049 -0.332369
v -0.214052 -0.410230 0.341908
v -0.322199 -0.914282 0.396656
v 0.321192 -0.910612 0.408725
v 0.000282 -0.495311 0.307091
v -0.027229 -0.950352 0.402103
v 0.199753 -0.398234 0.297475
v 0.347695 -0.237654 -0.431147
v 0.453125 0.867188 -0.382812
v -0.453125 0.867188 -0.382812
v -0.476077 0.899132 0.128827
v 0.465608 0.900982 0.152219
v 0.460237 0.527298 0.472638
v 0.717463 0.403459 0.312642
v -0.781498 0.576058 0.095848
v 0.781498 0.576058 0.095848
v 0.770823 0.623203 -0.342437
v -0.774117 0.618565 -0.345925
v 0.459720 0.411020 -0.709570
v -0.391690 -0.080613 -0.564660
v 0.838238 0.304138 -0.194035
v 0.539567 -0.142898 -0.158480
v -0.352624 -0.254787 -0.249850
v -0.637334 -0.131573 -0.129306
v -1.048997 -0.073373 -0.319236
v -1.315084 0.072190 -0.487198
v -1.363250 0.313430 -0.444733
v -1.210536 0.485920 -0.399701
v -0.980884 0.376460 -0.258508
v 1.207696 0.489413 -0.396355
v 1.211712 0.314025 -0.444590
v 1.238196 0.056204 -0.404615
v 1.037881 -0.075968 -0.309556
v 0.799217 -0.111136 -0.120197
v -0.845118 -0.049599 -0.146843
v 1.005483 0.430324 -0.271337
v 0.851778 -0.000411 -0.293091
v -1.147014 0.048217 -0.437880
v -1.233435 0.252704 -0.432477
v -1.170348 0.345691 -0.460999
v -0.957870 0.304972 -0.342476
v -0.795922 0.102855 -0.308274
v 0.790779 0.104465 -0.308961
v -0.712712 0.004226 -0.186871
v 0.709322 -0.014957 -0.168345
v -0.851212 0.363598 -0.191879
v 0.972471 0.311042 -0.359196
v -0.849688 -0.002268 -0.295795
v 1.142695 0.041631 -0.458032
v 1.059998 0.205557 -0.380618
v -1.074143 0.218953 -0.386767
v -1.223191 0.489490 -0.551496
v 1.227002 0.480829 -0.552827
v 1.363280 0.310916 -0.445376
v 1.225087 -0.009861 -0.547001
v -1.039062 -0.085938 -0.492188
v 0.789062 -0.125000 -0.328125
v 0.833846 0.352238 -0.391235
vn 0.7426 -0.1332 0.6563
vn -0.7425 -0.1307 0.6570
vn 0.4662 -0.7042 0.5356
vn -0.4662 -0.7042 0.5356
vn -0.1498 -0.6682 0.7288
vn 0.1472 -0.6689 0.7286
vn -0.6561 -0.3741 0.6555
vn -0.5826 0.1871 0.7909
vn 0.5878 0.1841 0.7878
vn 0.6212 0.3409 0.7056
vn 0.2249 0.7902 0.5701
vn 0.7806 0.3135 0.5408
vn 0.0846 -0.0029 0.9964
vn -0.0882 -0.0006 0.9961
vn 0.2335 0.0715 0.9697
vn -0.2310 0.0726 0.9702
vn 0.2400 -0.9182 0.3150
vn -0.5348 0.5477 0.6435
vn -0.4562 -0.4039 0.7929
vn -0.0470 -0.4822 0.8748
vn 0.4341 -0.0430 0.8998
vn -0.0370 0.1331 0.9904
vn 0.1550 -0.6632 0.7322
vn -0.1235 -0.7502 0.6496
vn 0.5084 -0.0394 0.8602
vn 0.9676 0.2331 0.0967
vn -0.9384 0.3449 0.0203
vn -0.2234 0.9324 0.2842
vn -1.0000 0.0000 0.0000
vn 0.4777 0.6670 0.5717
vn -0.5745 -0.7893 0.2166
vn -0.1167 -0.2998 0.9468
vn 0.0874 -0.3371 0.9374
vn -0.3458 -0.1307 0.9291
vn 0.5085 0.1913 0.8396
vn 0.0463 -0.9257 0.3753
vn 0.1398 -0.8398 0.5245
vn 0.3650 -0.3896 0.8456
vn -0.3198 -0.3019 0.8981
vn -0.4681 -0.1867 0.8637
vn -0.3835 0.5470 0.7441
vn -0.4886 0.3429 0.8023
vn -0.1449 0.1368 0.9799
vn 0.3259 -0.2356 0.9156
vn -0.1452 -0.0523 0.9880
vn 0.1879 0.1513 0.9705
vn -0.3390 -0.6083 -0.7177
vn 0.2823 0.9395 0.1943
vn -0.5263 0.7938 -0.3048
vn 0.8999 0.0547 -0.4327
vn 0.0422 -0.2067 -0.9775
vn -0.2289 -0.1857 -0.9556
vn -0.1157 -0.9747 -0.1913
vn 0.9638 0.1872 -0.1898
vn -0.9449 0.1725 -0.2782
vn 0.0504 -0.2005 -0.9784
vn -0.2826 -0.9162 -0.2841
vn 0.1993 -0.7930 -0.5757
vn 0.0615 0.9718 0.2275
vn 0.6474 0.2784 -0.7095
vn 0.7208 0.6909 0.0568
vn -0.7284 0.6831 0.0536
vn -0.3761 0.2484 -0.8926
vn 0.3843 0.2336 -0.8932
vn 0.1411 0.5854 0.7983
vn -0.9440 0.2878 -0.1612
vn 0.9786 0.2060 -0.0017
vn -0.9550 0.2964 0.0126
vn 0.9748 0.2209 0.0322
vn 0.5292 -0.8449 -0.0788
vn 0.3735 -0.8940 0.2475
vn -0.4819 -0.5859 0.6515
vn 0.6088 -0.2327 -0.7584
vn -0.4653 -0.3035 -0.8315
vn -0.1502 -0.1231 0.9810
vn 0.0083 0.1540 0.9880
vn -0.3508 -0.7774 0.5221
vn -0.3580 0.8383 0.4113
vn 0.3946 0.6745 0.6240
vn 0.6019 -0.7985 0.0017
vn -0.8375 -0.5266 -0.1456
vn -0.1753 0.3048 0.9361
vn 0.0951 0.4328 0.8965
vn 0.9056 -0.3809 -0.1868
vn 0.4334 0.6933 0.5758
vn -0.2806 0.9122 0.2985
vn -0.8817 -0.3352 0.3320
vn -0.4443 -0.4421 0.7792
vn -0.9165 -0.3558 -0.1829
vn 0.7233 -0.5280 0.4450
vn 0.1644 0.2404 0.9567
vn 0.2526 0.0131 0.9675
vn 0.5039 -0.1477 0.8511
vn -0.4408 -0.0795 0.8941
vn 0.4807 -0.1643 0.8614
vn -0.1750 0.3953 0.9017
vn 0.3340 0.0865 0.9386
vn -0.4559 0.1661 0.8744
vn 0.7604 0.6468 0.0583
vn -0.3315 0.9389 -0.0924
vn 0.3457 0.9379 -0.0292
vn -0.0932 -0.1315 -0.9869
vn 0.6100 -0.0118 -0.7923
vn -0.6180 0.0150 -0.7860
vn 0.5612 -0.1600 -0.8120
vn 0.7534 -0.3119 0.5789
vn -0.7536 -0.3115 0.5789
vn -0.2558 -0.6822 0.6849
vn 0.2566 -0.6836 0.6833
vn 0.6591 -0.3732 0.6529
vn -0.6158 0.3422 0.7097
vn -0.2251 0.7906 0.5694
vn -0.3515 0.6721 0.6517
vn -0.9005 0.1356 0.4133
vn -0.7806 0.3128 0.5411
vn -0.1919 -0.8538 0.4839
vn 0.8885 0.1812 0.4217
vn -0.1905 -0.7044 0.6837
vn 0.6479 -0.3552 0.6739
vn 0.7240 -0.3636 0.5862
vn -0.7181 -0.3765 0.5853
vn -0.7190 -0.4186 0.5548
vn 0.5275 0.5758 0.6247
vn -0.6918 0.5098 0.5114
vn -0.4558 0.4267 0.7812
vn 0.6927 0.4952 0.5244
vn 0.3795 -0.3526 0.8554
vn 0.0296 -0.4717 0.8813
vn -0.0374 -0.0306 0.9988
vn -0.0730 -0.3939 0.9162
vn -0.0633 -0.1310 0.9894
vn 0.0035 -0.4087 0.9127
vn -0.2779 0.1780 0.9440
vn -0.3193 -0.1157 0.9406
vn -0.2418 -0.0339 0.9697
vn -0.2864 -0.2692 0.9195
vn 0.2035 -0.4892 0.8481
vn -0.1661 -0.3444 0.9240
vn 0.0114 -0.0724 0.9973
vn 0.0967 -0.7909 0.6042
vn -0.7825 0.4728 0.4052
vn 0.5621 -0.8013 0.2048
vn 0.3319 0.3817 -0.8627
vn 0.3036 0.3201 0.8974
vn -0.1573 0.2358 0.9590
vn 0.9126 0.0757 0.4018
vn -0.8996 0.1392 0.4138
vn -0.2080 0.6244 0.7529
vn -0.6138 0.7592 -0.2162
vn 0.9199 0.2753 -0.2792
vn 0.1409 -0.0328 0.9895
vn -0.2357 -0.7899 0.5662
vn 0.0699 -0.0548 0.9960
vn 0.3880 0.4652 0.7956
vn 0.1876 0.0615 0.9803
vn 0.2274 0.2686 0.9360
vn -0.3582 -0.1325 0.9242
vn -0.7769 0.5642 -0.2794
vn -0.4016 0.8372 -0.3711
vn 0.7412 0.5398 -0.3991
vn 0.3213 0.9256 -0.1998
vn 0.5109 0.7987 -0.3180
vn -0.3528 0.8175 -0.4552
vn 0.1148 -0.9726 -0.2023
vn -0.8826 0.1268 -0.4527
vn -0.4420 -0.6843 -0.5800
vn -0.1019 -0.9829 -0.1532
vn -0.3004 -0.7782 -0.5515
vn 0.0050 -0.1090 -0.9940
vn 0.9581 0.1604 -0.2373
vn -0.9491 0.1810 -0.2577
vn 0.2766 -0.7521 -0.5982
vn 0.4372 -0.5530 -0.7092
vn 0.3561 -0.9251 -0.1316
vn -0.3765 -0.9132 -0.1558
vn 0.4413 -0.3067 -0.8433
vn -0.5722 -0.7516 0.3282
vn 0.2077 0.9759 -0.0665
vn -0.2815 -0.1029 -0.9540
vn -0.0751 0.9709 0.2272
vn -0.2053 0.9762 -0.0702
vn 0.3167 0.5554 -0.7689
vn -0.3169 0.5545 -0.7695
vn 0.6176 0.5162 0.5934
vn -0.6710 0.2520 -0.6973
vn 0.4847 0.5140 -0.7078
vn -0.4849 0.5220 -0.7017
vn 0.6129 0.7875 -0.0640
vn -0.6160 0.7840 -0.0766
vn -0.6152 0.5212 0.5915
vn 0.2149 0.6339 0.7429
vn -0.2094 0.6331 0.7452
vn 0.9898 0.0821 0.1167
vn 0.9658 0.2526 0.0589
vn -0.9587 0.1168 0.2593
vn -0.5125 -0.8310 0.2164
vn -0.9679 0.2252 -0.1116
vn -0.8036 -0.5944 0.0320
vn 0.8134 -0.4699 0.3430
vn -0.5985 -0.3068 -0.7400
vn -0.3997 -0.9166 -0.0071
vn -0.1872 -0.2064 0.9604
vn 0.7376 -0.5994 -0.3107
vn -0.4259 0.2338 0.8740
vn -0.0004 -0.2652 0.9642
vn 0.3160 0.6224 0.7161
vn -0.1326 0.6354 0.7607
vn 0.5576 -0.2082 0.8035
vn -0.6462 0.1981 0.7370
vn -0.4961 0.0830 0.8643
vn 0.6017 -0.1688 0.7807
vn -0.6137 -0.4572 0.6437
vn -0.3018 -0.0811 0.9499
vn 0.5674 0.4357 0.6987
vn -0.5857 0.3843 0.7136
vn 0.9086 -0.3485 0.2303
vn 0.6425 -0.4912 0.5882
vn -0.7724 -0.5723 0.2755
vn 0.0174 0.9531 0.3023
vn 0.1890 -0.9804 0.0561
vn -0.3023 -0.1526 0.9409
vn -0.0482 -0.9795 -0.1957
vn -0.4306 -0.0785 -0.8991
vn 0.6182 -0.7332 0.2833
vn -0.4963 -0.8675 0.0345
vn 0.8989 -0.4232 0.1136
vn -0.7565 0.6493 0.0783
vn 0.3248 0.9458 -0.0048
vn -0.3486 0.9311 -0.1073
vn 0.3961 0.0322 -0.9176
vn -0.2315 -0.8715 -0.4324
vn -0.5239 0.8248 0.2128
vn 0.3609 0.6721 0.6466
vn -0.3947 0.6753 0.6231
vn -0.8196 0.1538 0.5519
vn -0.3593 -0.8336 0.4196
vn 0.6916 -0.4327 0.5784
vn -0.6196 -0.5057 0.6002
vn 0.5299 0.5794 0.6192
vn -0.6870 0.4959 0.5312
vn 0.6841 0.4699 0.5579
vn 0.3026 -0.1492 0.9414
vn 0.0401 -0.4283 0.9028
vn -0.1922 -0.2026 0.9602
vn 0.3166 -0.0391 0.9478
vn -0.3435 -0.0480 0.9379
vn 0.2088 -0.0199 0.9777
vn 0.0769 -0.7050 0.7050
vn -0.0855 -0.1352 0.9871
vn -0.7750 0.5647 -0.2836
vn 0.8206 0.5085 -0.2608
vn 0.3562 0.8180 -0.4517
vn -0.3151 0.9219 -0.2253
vn 0.1708 -0.9790 -0.1117
vn -0.4126 -0.8178 -0.4012
vn 0.4265 -0.8915 -0.1525
vn -0.3856 -0.9106 -0.1489
vn 0.2589 -0.1133 -0.9592
vn 0.1320 0.9750 -0.1788
vn -0.1320 0.9750 -0.1788
vn 0.4105 0.6126 -0.6754
vn -0.4029 0.6149 -0.6779
vn 0.6243 0.5033 0.5974
vn -0.6379 0.4761 0.6053
vn 0.1433 0.5759 0.8049
vn -0.2399 0.6559 0.7157
vn 0.9230 0.1177 0.3663
vn -0.9606 -0.0539 0.2726
vn -0.3345 -0.9288 0.1595
vn 0.4945 -0.8511 0.1764
vn -0.5411 -0.2185 -0.8121
vn -0.2802 -0.8543 -0.4379
vn -0.2981 -0.1509 0.9425
vn 0.3503 0.7368 0.5783
vn 0.2710 -0.6184 0.7377
vn -0.4292 -0.7424 0.5144
vn -0.1841 0.2082 0.9606
vn 0.2002 -0.9732 -0.1131
vn -0.0377 -0.9968 0.0703
vn -0.3775 -0.0095 -0.9260
vn 0.4690 -0.0107 -0.8831
vn 0.1124 -0.9918 0.0606
usemtl None
s off
f 21//1 23//1 19//1
f 24//2 16//2 20//2
f 23//3 4//3 1//3
f 3//4 24//4 2//4
f 23//5 5//5 4//5
f 22//6 24//6 3//6
f 9//7 6//7 5//7
f 5//8 10//8 9//8
f 15//9 22//9 8//9
f 15//10 8//10 12//10
f 15//11 12//11 14//11
f 19//12 17//12 21//12
f 23//13 10//13 5//13
f 22//14 15//14 24//14
f 23//15 21//15 10//15
f 15//16 16//16 24//16
f 30//17 33//17 48//17
f 52//18 38//18 50//18
f 43//19 54//19 52//19
f 50//20 43//20 52//20
f 48//21 33//21 40//21
f 40//22 59//22 48//22
f 65//23 58//23 32//23
f 58//24 65//24 57//24
f 56//25 66//25 32//25
f 48//26 62//26 56//26
f 60//27 55//27 64//27
f 61//28 48//28 47//28
f 25//29 47//29 46//29
f 25//30 47//30 55//30
f 64//31 63//31 60//31
f 61//32 63//32 62//32
f 63//33 61//33 60//33
f 47//34 48//34 59//34
f 55//35 47//35 59//35
f 45//36 68//36 66//36
f 45//37 67//37 68//37
f 33//38 41//38 78//38
f 72//39 49//39 73//39
f 71//40 49//40 72//40
f 43//41 70//41 69//41
f 74//42 76//42 44//42
f 43//43 69//43 84//43
f 83//44 82//44 42//44
f 70//45 71//45 81//45
f 41//46 80//46 79//46
f 78//47 77//47 40//47
f 87//48 39//48 86//48
f 38//49 88//49 90//49
f 94//50 116//50 35//50
f 107//51 106//51 108//51
f 107//52 108//52 104//52
f 108//53 31//53 105//53
f 32//54 106//54 109//54
f 105//55 31//55 104//55
f 106//56 107//56 109//56
f 29//57 34//57 93//57
f 110//58 28//58 97//58
f 114//59 96//59 95//59
f 121//60 119//60 160//60
f 114//61 118//61 119//61
f 117//62 113//62 120//62
f 86//63 89//63 115//63
f 88//64 87//64 90//64
f 86//65 115//65 87//65
f 92//66 91//66 98//66
f 123//67 119//67 118//67
f 120//68 148//68 117//68
f 119//69 123//69 160//69
f 110//70 124//70 109//70
f 94//71 124//71 101//71
f 93//72 104//72 29//72
f 102//73 121//73 160//73
f 100//74 97//74 122//74
f 130//75 129//75 141//75
f 133//76 134//76 156//76
f 137//77 127//77 126//77
f 134//78 151//78 135//78
f 13//79 21//79 17//79
f 124//80 147//80 101//80
f 126//81 98//81 146//81
f 136//82 147//82 124//82
f 126//83 146//83 137//83
f 101//84 147//84 123//84
f 136//85 139//85 147//85
f 150//86 137//86 146//86
f 148//87 144//87 146//87
f 148//88 131//88 144//88
f 98//89 148//89 146//89
f 145//90 149//90 138//90
f 139//91 152//91 145//91
f 145//92 152//92 149//92
f 151//93 152//93 139//93
f 153//94 140//94 150//94
f 152//95 151//95 133//95
f 153//96 142//96 141//96
f 149//97 152//97 133//97
f 142//98 153//98 143//98
f 156//99 155//99 132//99
f 132//100 155//100 138//100
f 148//101 99//101 154//101
f 128//102 154//102 158//102
f 155//103 156//103 157//103
f 128//104 129//104 154//104
f 160//105 159//105 102//105
f 19//106 23//106 1//106
f 2//107 24//107 20//107
f 4//108 5//108 6//108
f 7//109 22//109 3//109
f 8//110 22//110 7//110
f 10//111 11//111 9//111
f 10//112 13//112 11//112
f 14//113 16//113 15//113
f 29//114 57//114 64//114
f 20//115 16//115 18//115
f 57//116 31//116 58//116
f 30//117 56//117 32//117
f 29//118 49//118 34//118
f 41//119 35//119 51//119
f 33//120 94//120 41//120
f 49//121 92//121 34//121
f 50//122 92//122 49//122
f 51//123 37//123 53//123
f 53//124 39//124 54//124
f 38//125 36//125 50//125
f 52//126 39//126 38//126
f 54//127 44//127 53//127
f 44//128 51//128 53//128
f 50//129 71//129 70//129
f 50//130 70//130 43//130
f 41//131 51//131 42//131
f 40//132 54//132 59//132
f 55//133 59//133 49//133
f 54//134 43//134 75//134
f 64//135 45//135 63//135
f 59//136 54//136 75//136
f 66//137 65//137 32//137
f 65//138 45//138 57//138
f 66//139 63//139 45//139
f 59//140 73//140 49//140
f 25//141 61//141 47//141
f 56//142 62//142 63//142
f 55//143 61//143 25//143
f 62//144 48//144 61//144
f 60//145 61//145 55//145
f 30//146 48//146 56//146
f 64//147 55//147 29//147
f 65//148 68//148 67//148
f 65//149 66//149 68//149
f 67//150 45//150 65//150
f 85//151 59//151 75//151
f 40//152 33//152 78//152
f 41//153 82//153 80//153
f 44//154 83//154 42//154
f 75//155 43//155 84//155
f 44//156 76//156 83//156
f 69//157 70//157 81//157
f 86//158 37//158 89//158
f 41//159 79//159 78//159
f 87//160 38//160 39//160
f 115//161 35//161 116//161
f 37//162 115//162 89//162
f 90//163 36//163 38//163
f 106//164 58//164 108//164
f 92//165 36//165 91//165
f 93//166 34//166 92//166
f 108//167 58//167 31//167
f 28//168 122//168 97//168
f 104//169 108//169 105//169
f 30//170 32//170 109//170
f 104//171 31//171 29//171
f 30//172 94//172 33//172
f 102//173 110//173 97//173
f 109//174 28//174 110//174
f 107//175 125//175 28//175
f 97//176 121//176 102//176
f 98//177 93//177 92//177
f 111//178 96//178 114//178
f 100//179 27//179 97//179
f 113//180 95//180 96//180
f 96//181 112//181 113//181
f 121//182 26//182 111//182
f 26//183 100//183 112//183
f 118//184 115//184 116//184
f 100//185 99//185 120//185
f 121//186 111//186 119//186
f 120//187 112//187 100//187
f 111//188 114//188 119//188
f 120//189 113//189 112//189
f 117//190 90//190 113//190
f 95//191 115//191 114//191
f 95//192 90//192 87//192
f 118//193 101//193 123//193
f 94//194 101//194 116//194
f 91//195 148//195 98//195
f 126//196 93//196 98//196
f 120//197 99//197 148//197
f 125//198 104//198 93//198
f 124//199 30//199 109//199
f 122//200 99//200 100//200
f 103//201 125//201 126//201
f 128//202 141//202 129//202
f 110//203 102//203 124//203
f 130//204 131//204 148//204
f 132//205 133//205 156//205
f 139//206 135//206 151//206
f 140//207 128//207 127//207
f 138//208 133//208 132//208
f 137//209 140//209 127//209
f 133//210 151//210 134//210
f 142//211 130//211 141//211
f 142//212 131//212 130//212
f 153//213 144//213 143//213
f 145//214 147//214 139//214
f 150//215 146//215 144//215
f 123//216 147//216 145//216
f 123//217 145//217 138//217
f 144//218 131//218 143//218
f 140//219 137//219 150//219
f 159//220 135//220 136//220
f 153//221 141//221 140//221
f 127//222 103//222 126//222
f 160//223 157//223 159//223
f 134//224 135//224 157//224
f 158//225 127//225 128//225
f 134//226 157//226 156//226
f 129//227 130//227 154//227
f 130//228 148//228 154//228
f 138//229 155//229 160//229
f 99//230 158//230 154//230
f 159//231 124//231 102//231
f 123//232 138//232 160//232
f 13//233 10//233 21//233
f 14//234 18//234 16//234
f 29//235 31//235 57//235
f 29//236 55//236 49//236
f 41//237 94//237 35//237
f 50//238 36//238 92//238
f 51//239 35//239 37//239
f 53//240 37//240 39//240
f 52//241 54//241 39//241
f 54//242 74//242 44//242
f 44//243 42//243 51//243
f 50//244 49//244 71//244
f 40//245 74//245 54//245
f 64//246 57//246 45//246
f 66//247 56//247 63//247
f 59//248 85//248 73//248
f 41//249 42//249 82//249
f 86//250 39//250 37//250
f 87//251 88//251 38//251
f 115//252 37//252 35//252
f 90//253 91//253 36//253
f 106//254 32//254 58//254
f 28//255 125//255 122//255
f 109//256 107//256 28//256
f 107//257 104//257 125//257
f 97//258 27//258 121//258
f 111//259 26//259 96//259
f 96//260 26//260 112//260
f 121//261 27//261 26//261
f 26//262 27//262 100//262
f 118//263 114//263 115//263
f 117//264 91//264 90//264
f 95//265 87//265 115//265
f 95//266 113//266 90//266
f 118//267 116//267 101//267
f 91//268 117//268 148//268
f 126//269 125//269 93//269
f 124//270 94//270 30//270
f 122//271 103//271 99//271
f 103//272 122//272 125//272
f 128//273 140//273 141//273
f 139//274 136//274 135//274
f 138//275 149//275 133//275
f 142//276 143//276 131//276
f 153//277 150//277 144//277
f 159//278 157//278 135//278
f 127//279 158//279 103//279
f 160//280 155//280 157//280
f 99//281 103//281 158//281
f 159//282 136//282 124//282
