# Blender v2.78 (sub 0) OBJ File: ''
# www.blender.org
mtllib ship.mtl
o ship
v 0.305200 0.277562 -1.122606
v 0.350617 0.215062 -0.866106
v 0.286645 0.215062 -1.122606
v 0.373312 0.277562 -0.866106
v -0.286645 0.215062 -1.122606
v -0.350617 0.215062 -0.866106
v -0.373312 0.277562 -0.866106
v -0.305200 0.277562 -1.122606
v 0.475000 0.298508 -0.785106
v 0.415625 0.065400 0.227394
v 0.369444 0.065400 -0.785106
v 0.534375 0.298508 0.227394
v 0.178125 -0.051154 0.227394
v 0.158333 -0.051154 -0.785106
v 0.277083 0.065400 -1.190106
v 0.118750 -0.051154 -1.190106
v -0.178125 -0.051154 0.227394
v -0.158333 -0.051154 -0.785106
v -0.118750 -0.051154 -1.190106
v -0.415625 0.065400 0.227394
v -0.369444 0.065400 -0.785106
v -0.277083 0.065400 -1.190106
v -0.534375 0.298508 0.227394
v -0.475000 0.298508 -0.785106
v -0.534375 0.415062 0.227394
v -0.524479 0.415062 0.058644
v -0.475000 0.415062 -0.785106
v 0.524479 0.415062 0.058644
v 0.458476 0.415062 0.058644
v 0.467127 0.415062 0.218273
v 0.475000 0.415062 -0.785106
v 0.415224 0.415062 -0.739498
v 0.356250 0.415062 -1.190106
v 0.311418 0.415062 -1.122606
v -0.356250 0.415062 -1.190106
v -0.311418 0.415062 -1.122606
v -0.415224 0.415062 -0.739498
v -0.467127 0.415062 0.218273
v -0.311418 0.415062 0.920638
v -0.356250 0.415062 0.969894
v -0.103806 0.415062 1.239894
v -0.118750 0.415062 1.307394
v 0.103806 0.415062 1.239894
v 0.118750 0.415062 1.307394
v 0.311418 0.415062 0.920638
v 0.356250 0.415062 0.969894
v 0.534375 0.415062 0.227394
v -0.458476 0.415062 0.058644
v 0.467127 0.306383 0.218273
v 0.415224 0.306383 -0.739498
v 0.363321 0.089026 0.218273
v 0.322952 0.089026 -0.739498
v 0.311418 0.306383 -1.122606
v 0.242214 0.089026 -1.122606
v 0.138408 -0.019653 -0.739498
v 0.155709 -0.019653 0.218273
v 0.103806 -0.019653 -1.122606
v -0.138408 -0.019653 -0.739498
v -0.155709 -0.019653 0.218273
v -0.103806 -0.019653 -1.122606
v -0.242214 0.089026 -1.122606
v -0.322952 0.089026 -0.739498
v -0.363321 0.089026 0.218273
v -0.311418 0.306383 -1.122606
v -0.415224 0.306383 -0.739498
v -0.467127 0.306383 0.218273
v -0.302449 0.312427 0.920638
v -0.242214 0.170535 0.920637
v -0.311418 0.333553 0.920638
v -0.295582 0.335625 0.944989
v 0.295582 0.335625 0.944989
v 0.302449 0.312427 0.920638
v 0.103806 0.360722 1.239894
v -0.103806 0.360722 1.239894
v 0.311418 0.333553 0.920638
v -0.103806 0.089025 0.920637
v 0.103806 0.089025 0.920637
v 0.242214 0.170535 0.920637
v 0.356250 0.298508 -1.190106
v -0.356250 0.298508 -1.190106
v -0.118750 0.356785 1.307394
v -0.356250 0.327646 0.969894
v -0.277083 0.152815 0.969894
v -0.118750 0.065400 0.969894
v 0.118750 0.065400 0.969894
v 0.118750 0.356785 1.307394
v 0.277083 0.152815 0.969894
v 0.356250 0.327646 0.969894
v -0.429173 0.227562 0.237894
v 0.401748 0.165062 0.237894
v -0.401748 0.165062 0.237894
v 0.429173 0.227562 0.237894
v 0.358597 0.165062 0.537894
v -0.358597 0.165062 0.537894
v -0.407702 0.165062 0.349786
v 0.407702 0.165062 0.349786
v 0.385673 0.227562 0.537894
v 0.435534 0.227562 0.349786
v -0.385673 0.227562 0.537894
v -0.435534 0.227562 0.349786
v -0.405300 0.227562 -0.201606
v 0.388247 0.227562 -0.501606
v -0.388247 0.227562 -0.501606
v 0.405300 0.227562 -0.201606
v 0.363437 0.165062 -0.501606
v -0.363437 0.165062 -0.501606
v 0.379400 0.165062 -0.201606
v -0.379400 0.165062 -0.201606
vt 2.1745 0.1875
vt 1.9180 0.1250
vt 2.1745 0.1250
vt 1.9180 0.1875
vt 0.2866 2.1745
vt -0.3506 1.9180
vt 0.3506 1.9180
vt -0.2866 2.1745
vt -1.9180 0.1250
vt -1.9180 0.1875
vt -2.1745 0.1875
vt -2.1745 0.1250
vt 0.2866 0.1250
vt -0.3052 0.1875
vt -0.2866 0.1250
vt 0.3052 0.1875
vt 0.3733 -1.9180
vt -0.3052 -2.1745
vt 0.3052 -2.1745
vt -0.3733 -1.9180
vt -0.3506 0.1250
vt 0.3733 0.1875
vt -0.3733 0.1875
vt 0.3506 0.1250
vt 1.8370 0.2084
vt 0.8245 -0.0247
vt 1.8370 -0.0247
vt 0.8245 0.2084
vt -0.3694 1.8370
vt -0.1781 0.8245
vt -0.1583 1.8370
vt -0.4156 0.8245
vt -0.2771 2.2420
vt -0.1187 2.2420
vt 0.1781 0.8245
vt 0.1583 1.8370
vt 0.1187 2.2420
vt 0.4156 0.8245
vt 0.3694 1.8370
vt 0.2771 2.2420
vt -0.8245 -0.0247
vt -0.8245 0.2084
vt -1.8370 0.2084
vt -1.8370 -0.0247
vt -0.8245 0.3250
vt -0.9933 0.3250
vt -1.8370 0.3250
vt -0.5245 -0.9933
vt -0.4585 -0.9933
vt -0.4671 -0.8336
vt -0.4750 -1.8370
vt -0.4152 -1.7914
vt -0.3562 -2.2420
vt -0.3114 -2.1745
vt 0.3562 -2.2420
vt 0.4750 -1.8370
vt 0.3114 -2.1745
vt 0.5245 -0.9933
vt 0.4152 -1.7914
vt 0.4671 -0.8336
vt 0.5344 -0.8245
vt 0.3114 -0.1313
vt 0.3562 -0.0820
vt 0.1038 0.1880
vt 0.1187 0.2555
vt -0.1038 0.1880
vt -0.1187 0.2555
vt -0.3114 -0.1313
vt -0.3562 -0.0820
vt -0.5344 -0.8245
vt 0.4585 -0.9933
vt -0.8336 0.2163
vt -0.8336 0.3250
vt -0.9933 0.3250
vt -1.7914 0.2163
vt -1.7914 0.3250
vt -0.8336 -0.0010
vt -1.7914 -0.0010
vt -2.1745 0.2163
vt -2.1745 -0.0010
vt -0.1384 -1.7914
vt -0.3230 -1.7914
vt -0.2422 -2.1745
vt -0.1557 -0.8336
vt -0.3633 -0.8336
vt -0.1038 -2.1745
vt 0.1384 -1.7914
vt 0.1557 -0.8336
vt 0.1038 -2.1745
vt 0.2422 -2.1745
vt 0.3230 -1.7914
vt 0.3633 -0.8336
vt 2.1745 0.2163
vt 1.7914 -0.0010
vt 2.1745 -0.0010
vt 1.7914 0.2163
vt 0.8336 -0.0010
vt 0.8336 0.2163
vt 0.1313 0.2224
vt 0.1313 0.0805
vt 0.1313 0.2435
vt 0.1069 0.2456
vt -0.2956 -0.1069
vt 0.3024 -0.1313
vt 0.2956 -0.1069
vt -0.3024 -0.1313
vt -0.1038 0.1880
vt 0.1038 0.1880
vt -0.1069 0.2456
vt -0.1313 0.2435
vt -0.1313 0.2224
vt 0.1038 -0.0010
vt 0.2422 0.0805
vt 0.3024 0.2224
vt -0.3024 0.2224
vt -0.1038 -0.0010
vt -0.2422 0.0805
vt -0.2422 -0.1313
vt -0.1038 -0.1313
vt 0.1038 -0.1313
vt 0.2422 -0.1313
vt -0.1313 0.0805
vt -0.1313 0.3250
vt 0.1880 0.3250
vt 0.1880 0.2707
vt 0.1038 0.3250
vt -0.1038 0.2707
vt 0.1038 0.2707
vt -0.1038 0.3250
vt 0.1313 0.3250
vt -0.1880 0.2707
vt -0.1880 0.3250
vt 0.8336 0.3250
vt 0.9933 0.3250
vt 1.7914 0.3250
vt 2.1745 0.3250
vt -0.2422 -0.0010
vt -0.1038 -0.1097
vt 0.1038 -0.1097
vt -0.3114 0.2163
vt 0.3114 0.2163
vt -0.3114 0.3250
vt 0.3114 0.3250
vt 0.2422 -0.0010
vt -2.1745 0.3250
vt 2.2420 0.3250
vt 2.2420 0.2084
vt 1.8370 0.3250
vt -0.1187 -0.1412
vt 0.1187 -0.1412
vt 0.2771 -0.0247
vt -0.3562 0.2084
vt 0.3562 0.2084
vt -0.3562 0.3250
vt 0.3562 0.3250
vt -0.2771 -0.0247
vt 0.2555 0.2667
vt -0.0820 0.3250
vt -0.0820 0.2376
vt 0.2555 0.3250
vt -0.0820 0.0628
vt 0.2771 0.0820
vt 0.1187 0.0820
vt 0.1187 -0.2555
vt -0.1187 0.0820
vt -0.1187 -0.2555
vt -0.2771 0.0820
vt 0.0820 0.2376
vt -0.2555 0.2667
vt 0.0820 0.0628
vt -0.1187 0.2667
vt 0.1187 0.3250
vt -0.1187 0.3250
vt 0.1187 0.2667
vt 0.0820 0.3250
vt -0.2555 0.3250
vt 0.8245 0.3250
vt -2.2420 0.2084
vt -2.2420 0.3250
vt -2.2420 -0.0247
vt 2.2420 -0.0247
vt 0.9933 0.3250
vt 0.4292 0.1375
vt -0.4017 0.0750
vt 0.4017 0.0750
vt -0.4292 0.1375
vt -0.3586 0.5140
vt 0.3586 0.5140
vt 0.4077 0.7021
vt 0.4017 0.8140
vt -0.4077 0.7021
vt -0.4017 0.8140
vt 0.5140 0.1375
vt 0.7021 0.0750
vt 0.7021 0.1375
vt 0.5140 0.0750
vt -0.3586 0.0750
vt 0.3857 0.1375
vt -0.3857 0.1375
vt 0.3586 0.0750
vt -0.7021 0.0750
vt -0.5140 0.0750
vt -0.5140 0.1375
vt -0.7021 0.1375
vt -0.8140 0.1375
vt -0.8140 0.0750
vt 0.4355 -0.7021
vt 0.3857 -0.5140
vt -0.3857 -0.5140
vt -0.4355 -0.7021
vt 0.4292 -0.8140
vt -0.4292 -0.8140
vt 0.8140 0.0750
vt 0.8140 0.1375
vt 0.4053 -1.2535
vt -0.3882 -1.5535
vt 0.3882 -1.5535
vt -0.4053 -1.2535
vt 0.3882 0.1375
vt -0.3634 0.0750
vt 0.3634 0.0750
vt -0.3882 0.1375
vt 0.3634 1.5535
vt -0.3794 1.2535
vt 0.3794 1.2535
vt -0.3634 1.5535
vt -1.5535 0.1375
vt -1.2535 0.0750
vt -1.2535 0.1375
vt -1.5535 0.0750
vt -0.3794 0.0750
vt 0.4053 0.1375
vt -0.4053 0.1375
vt 0.3794 0.0750
vt 1.2535 0.0750
vt 1.5535 0.0750
vt 1.5535 0.1375
vt 1.2535 0.1375
vn 0.9290 -0.2758 -0.2467
vn 0.9151 -0.3323 -0.2283
vn 0.9324 -0.2768 -0.2325
vn 0.9120 -0.3312 -0.2422
vn 0.0000 -1.0000 -0.0000
vn -0.9151 -0.3323 -0.2283
vn -0.9120 -0.3312 -0.2422
vn -0.9290 -0.2758 -0.2467
vn -0.9324 -0.2768 -0.2325
vn 0.0000 0.0000 -1.0000
vn 0.0000 1.0000 0.0000
vn 0.0000 0.0000 1.0000
vn 0.9097 -0.4119 -0.0534
vn 0.8903 -0.4535 -0.0406
vn 0.9102 -0.4121 -0.0415
vn 0.8898 -0.4533 -0.0522
vn 0.4832 -0.8752 -0.0220
vn 0.4405 -0.8977 -0.0086
vn 0.4833 -0.8754 -0.0094
vn 0.4405 -0.8975 -0.0201
vn 0.5875 -0.7981 -0.1340
vn 0.4804 -0.8702 -0.1096
vn 0.5918 -0.8040 -0.0578
vn -0.4405 -0.8977 -0.0086
vn -0.4405 -0.8975 -0.0201
vn -0.4832 -0.8752 -0.0220
vn -0.4833 -0.8754 -0.0094
vn -0.5918 -0.8040 -0.0578
vn -0.5875 -0.7981 -0.1340
vn -0.4804 -0.8702 -0.1096
vn -0.8903 -0.4535 -0.0406
vn -0.8898 -0.4533 -0.0522
vn -0.9097 -0.4119 -0.0534
vn -0.9102 -0.4121 -0.0415
vn -0.9983 -0.0000 -0.0585
vn -0.9985 0.0000 0.0541
vn -0.9017 0.4307 0.0380
vn -0.9013 0.4304 0.0488
vn -0.9193 0.3903 0.0498
vn -0.9198 0.3905 0.0388
vn -0.9036 0.3836 0.1904
vn -0.8931 0.3791 0.2420
vn -0.9226 0.2937 0.2500
vn -0.9342 0.2974 0.1969
vn -0.5069 0.8608 0.0458
vn -0.5046 0.8568 0.1063
vn -0.6124 0.7799 0.1291
vn -0.4637 0.8859 0.0084
vn -0.5073 0.8615 0.0214
vn -0.4637 0.8858 0.0195
vn -0.6166 0.7853 0.0557
vn 0.6124 0.7799 0.1291
vn 0.5069 0.8608 0.0458
vn 0.6166 0.7853 0.0557
vn 0.5073 0.8615 0.0214
vn 0.4637 0.8859 0.0084
vn 0.4637 0.8858 0.0195
vn 0.5046 0.8568 0.1063
vn 0.9226 0.2937 0.2500
vn 0.9036 0.3836 0.1904
vn 0.9342 0.2974 0.1969
vn 0.8931 0.3791 0.2420
vn 0.9193 0.3903 0.0498
vn 0.9017 0.4307 0.0380
vn 0.9198 0.3905 0.0388
vn 0.9013 0.4304 0.0488
vn 0.8995 0.3818 -0.2123
vn 0.9019 0.3829 -0.1999
vn 0.8839 0.4221 -0.2014
vn 0.8819 0.4212 -0.2118
vn 0.8991 0.3817 -0.2141
vn 0.7782 0.3303 -0.5342
vn 0.0000 0.7240 -0.6898
vn 0.0000 0.9964 -0.0848
vn -0.7782 0.3303 -0.5342
vn -0.4988 0.8469 -0.1843
vn -0.4571 0.8732 -0.1689
vn -0.5002 0.8494 -0.1684
vn -0.4562 0.8715 -0.1798
vn 0.0000 0.9882 -0.1529
vn 0.4571 0.8732 -0.1689
vn 0.4562 0.8715 -0.1798
vn 0.4988 0.8469 -0.1843
vn 0.5002 0.8494 -0.1684
vn -0.8839 0.4221 -0.2014
vn -0.9019 0.3829 -0.1999
vn -0.8995 0.3818 -0.2123
vn -0.8819 0.4211 -0.2117
vn -0.8991 0.3817 -0.2141
vn -0.9763 0.0000 -0.2164
vn -0.8383 -0.0000 -0.5452
vn 0.8383 -0.0000 -0.5452
vn 0.9763 0.0000 -0.2164
vn 0.9985 0.0000 0.0541
vn 0.9652 -0.0000 0.2615
vn -0.9652 -0.0000 0.2615
vn 0.9596 0.0000 -0.2814
vn -0.8178 -0.0000 0.5755
vn -0.7545 -0.3416 0.5604
vn -0.3856 -0.6984 0.6030
vn 0.0000 -0.7569 0.6535
vn 0.3856 -0.6984 0.6030
vn 0.7545 -0.3416 0.5604
vn 0.8178 -0.0000 0.5755
vn 0.9724 -0.0000 0.2333
vn -0.9596 0.0000 -0.2814
vn -0.9724 -0.0000 0.2333
vn -0.8919 -0.4039 -0.2034
vn -0.8801 -0.3985 -0.2581
vn -0.9124 -0.3099 -0.2675
vn -0.9256 -0.3143 -0.2111
vn -0.8869 -0.4016 0.2285
vn -0.8703 -0.4433 0.2146
vn -0.8900 -0.4030 0.2135
vn -0.8681 -0.4422 0.2256
vn -0.4745 -0.8595 0.1897
vn -0.4339 -0.8841 0.1735
vn -0.4760 -0.8622 0.1734
vn -0.4330 -0.8823 0.1847
vn 0.0000 -0.9879 0.1551
vn 0.4339 -0.8841 0.1735
vn 0.4330 -0.8823 0.1847
vn 0.4745 -0.8595 0.1897
vn 0.4760 -0.8622 0.1734
vn 0.9124 -0.3099 -0.2675
vn 0.8919 -0.4039 -0.2034
vn 0.9256 -0.3143 -0.2111
vn 0.8801 -0.3985 -0.2581
vn 0.9983 -0.0000 -0.0585
vn 0.8703 -0.4433 0.2146
vn 0.8681 -0.4422 0.2256
vn 0.8869 -0.4016 0.2285
vn 0.8900 -0.4030 0.2135
vn 0.8918 -0.3863 0.2355
vn 0.8884 -0.3956 0.2330
vn 0.8877 -0.3953 0.2359
vn 0.8926 -0.3867 0.2320
vn -0.8884 -0.3956 0.2330
vn -0.8926 -0.3867 0.2320
vn -0.8918 -0.3863 0.2355
vn -0.8877 -0.3953 0.2359
vn -0.9145 -0.4013 -0.0520
vn -0.9124 -0.4063 -0.0486
vn -0.9123 -0.4063 -0.0519
vn -0.9146 -0.4013 -0.0487
vn 0.9124 -0.4063 -0.0486
vn 0.9146 -0.4013 -0.0487
vn 0.9145 -0.4013 -0.0520
vn 0.9123 -0.4063 -0.0519
vn -0.9282 -0.3684 -0.0528
vn -0.9227 -0.3824 -0.0491
vn -0.9225 -0.3823 -0.0524
vn -0.9283 -0.3685 -0.0494
vn 0.9227 -0.3824 -0.0491
vn 0.9283 -0.3685 -0.0494
vn 0.9282 -0.3684 -0.0528
vn 0.9225 -0.3823 -0.0524
usemtl Wood_Dark_(Instance)
s 1
f 1/1/1 2/2/2 3/3/3
f 1/1/1 4/4/4 2/2/2
f 5/5/5 2/6/5 6/7/5
f 5/5/5 3/8/5 2/6/5
f 6/9/6 7/10/7 8/11/8
f 5/12/9 6/9/6 8/11/8
f 5/13/10 1/14/10 3/15/10
f 5/13/10 8/16/10 1/14/10
f 7/17/11 1/18/11 8/19/11
f 7/17/11 4/20/11 1/18/11
f 6/21/12 4/22/12 7/23/12
f 6/21/12 2/24/12 4/22/12
f 9/25/13 10/26/14 11/27/15
f 9/25/13 12/28/16 10/26/14
f 11/29/17 13/30/18 14/31/19
f 11/29/17 10/32/20 13/30/18
f 15/33/21 11/29/22 14/31/19
f 15/33/21 14/31/19 16/34/23
f 14/31/5 17/35/5 18/36/5
f 14/31/5 13/30/5 17/35/5
f 16/34/5 14/31/5 18/36/5
f 16/34/5 18/36/5 19/37/5
f 17/35/24 20/38/25 21/39/26
f 18/36/27 17/35/24 21/39/26
f 19/37/28 18/36/27 22/40/29
f 18/36/27 21/39/30 22/40/29
f 20/41/31 23/42/32 24/43/33
f 21/44/34 20/41/31 24/43/33
f 23/42/35 25/45/35 26/46/35
f 24/43/35 23/42/35 26/46/35
f 26/46/35 27/47/35 24/43/35
f 28/48/11 29/49/11 30/50/11
f 28/48/11 31/51/11 32/52/11
f 31/51/11 33/53/11 34/54/11
f 33/53/11 35/55/11 34/54/11
f 35/55/11 27/56/11 36/57/11
f 27/56/11 26/58/11 37/59/11
f 38/60/11 26/58/11 25/61/11
f 39/62/11 25/61/11 40/63/11
f 41/64/11 40/63/11 42/65/11
f 43/66/11 42/65/11 44/67/11
f 45/68/11 43/66/11 46/69/11
f 46/69/11 47/70/11 45/68/11
f 43/66/11 44/67/11 46/69/11
f 43/66/11 41/64/11 42/65/11
f 41/64/11 39/62/11 40/63/11
f 39/62/11 38/60/11 25/61/11
f 38/60/11 48/71/11 26/58/11
f 26/58/11 48/71/11 37/59/11
f 27/56/11 37/59/11 36/57/11
f 35/55/11 36/57/11 34/54/11
f 31/51/11 34/54/11 32/52/11
f 32/52/11 29/49/11 28/48/11
f 47/70/11 30/50/11 45/68/11
f 47/70/11 28/48/11 30/50/11
f 49/72/36 30/73/36 29/74/36
f 50/75/36 49/72/36 29/74/36
f 29/74/36 32/76/36 50/75/36
f 51/77/37 49/72/38 50/75/39
f 52/78/40 51/77/37 50/75/39
f 52/78/41 50/75/42 53/79/43
f 54/80/44 52/78/41 53/79/43
f 55/81/45 52/82/46 54/83/47
f 55/81/45 56/84/48 52/82/49
f 56/84/48 51/85/50 52/82/49
f 57/86/51 55/81/45 54/83/47
f 58/87/11 55/81/11 57/86/11
f 58/87/11 59/88/11 55/81/11
f 59/88/11 56/84/11 55/81/11
f 60/89/11 58/87/11 57/86/11
f 61/90/52 58/87/53 60/89/54
f 62/91/55 59/88/56 58/87/53
f 62/91/55 63/92/57 59/88/56
f 61/90/52 62/91/58 58/87/53
f 64/93/59 62/94/60 61/95/61
f 64/93/59 65/96/62 62/94/60
f 65/96/63 63/97/64 62/94/65
f 65/96/63 66/98/66 63/97/64
f 67/99/67 68/100/68 63/97/69
f 66/98/70 69/101/71 67/99/67
f 67/99/67 63/97/69 66/98/70
f 67/99/72 69/101/72 70/102/72
f 71/103/73 67/104/73 70/105/73
f 71/103/73 72/106/73 67/104/73
f 73/107/74 70/105/74 74/108/74
f 73/107/74 71/103/74 70/105/74
f 71/109/75 75/110/75 72/111/75
f 76/112/10 68/113/10 67/114/10
f 72/115/10 77/116/10 67/114/10
f 72/115/10 78/117/10 77/116/10
f 77/116/10 76/112/10 67/114/10
f 78/118/76 56/84/77 77/119/78
f 78/118/76 51/85/79 56/84/77
f 77/119/80 59/88/80 76/120/80
f 77/119/80 56/84/80 59/88/80
f 59/88/81 63/92/82 68/121/83
f 76/120/84 59/88/81 68/121/83
f 51/77/85 78/122/86 72/111/87
f 49/72/88 72/111/87 75/110/89
f 49/72/88 51/77/85 72/111/87
f 30/73/90 49/72/90 75/110/90
f 45/123/90 30/73/90 75/110/90
f 45/123/91 75/110/91 71/109/91
f 43/124/91 45/123/91 73/125/91
f 45/123/91 71/109/91 73/125/91
f 41/126/10 73/127/10 74/128/10
f 41/126/10 43/129/10 73/127/10
f 70/102/92 69/101/92 39/130/92
f 74/131/92 39/130/92 41/132/92
f 74/131/92 70/102/92 39/130/92
f 69/101/93 38/133/93 39/130/93
f 69/101/93 66/98/93 38/133/93
f 48/134/94 38/133/94 66/98/94
f 65/96/94 37/135/94 48/134/94
f 48/134/94 66/98/94 65/96/94
f 37/135/95 65/96/95 64/93/95
f 36/136/95 37/135/95 64/93/95
f 61/137/12 60/138/12 57/139/12
f 64/140/12 57/139/12 53/141/12
f 36/142/12 53/141/12 34/143/12
f 36/142/12 64/140/12 53/141/12
f 64/140/12 61/137/12 57/139/12
f 57/139/12 54/144/12 53/141/12
f 50/75/96 32/76/96 34/145/96
f 53/79/96 50/75/96 34/145/96
f 33/146/97 9/25/97 79/147/97
f 33/146/97 31/148/97 9/25/97
f 16/149/10 19/150/10 22/151/10
f 79/152/10 16/149/10 80/153/10
f 33/154/10 79/152/10 80/153/10
f 80/153/10 35/155/10 33/154/10
f 79/152/10 15/156/10 16/149/10
f 16/149/10 22/151/10 80/153/10
f 81/157/98 40/158/98 82/159/98
f 81/157/98 42/160/98 40/158/98
f 83/161/99 81/157/99 82/159/99
f 83/162/100 84/163/100 81/164/100
f 84/163/101 85/165/101 86/166/101
f 81/164/101 84/163/101 86/166/101
f 86/166/102 85/165/102 87/167/102
f 88/168/103 86/169/103 87/170/103
f 81/171/12 44/172/12 42/173/12
f 81/171/12 86/174/12 44/172/12
f 46/175/104 44/176/104 86/169/104
f 88/168/104 46/175/104 86/169/104
f 88/168/105 47/177/105 46/175/105
f 88/168/105 12/28/105 47/177/105
f 80/178/106 27/47/106 35/179/106
f 80/178/106 24/43/106 27/47/106
f 25/45/107 23/42/107 82/159/107
f 40/158/107 25/45/107 82/159/107
f 21/44/108 24/43/109 80/178/110
f 22/180/111 21/44/108 80/178/110
f 82/159/112 20/41/113 83/161/114
f 82/159/112 23/42/115 20/41/113
f 83/162/116 17/35/117 84/163/118
f 83/162/116 20/38/119 17/35/117
f 17/35/120 13/30/120 85/165/120
f 84/163/120 17/35/120 85/165/120
f 13/30/121 10/32/122 87/167/123
f 85/165/124 13/30/121 87/167/123
f 79/147/125 11/27/126 15/181/127
f 79/147/125 9/25/128 11/27/126
f 28/182/129 47/177/129 12/28/129
f 9/25/129 31/148/129 28/182/129
f 28/182/129 12/28/129 9/25/129
f 10/26/130 12/28/131 88/168/132
f 87/170/133 10/26/130 88/168/132
usemtl Wood_Medium_(Instance)
f 89/183/10 90/184/10 91/185/10
f 89/183/10 92/186/10 90/184/10
f 93/187/5 94/188/5 95/189/5
f 95/189/5 91/190/5 96/191/5
f 91/190/5 90/192/5 96/191/5
f 96/191/5 93/187/5 95/189/5
f 97/193/134 96/194/135 98/195/136
f 97/193/134 93/196/137 96/194/135
f 94/197/12 97/198/12 99/199/12
f 94/197/12 93/200/12 97/198/12
f 95/201/138 94/202/139 99/203/140
f 100/204/141 95/201/138 99/203/140
f 89/205/142 95/201/143 100/204/144
f 89/205/142 91/206/145 95/201/143
f 100/207/11 99/208/11 97/209/11
f 98/210/11 89/211/11 100/207/11
f 98/210/11 92/212/11 89/211/11
f 100/207/11 97/209/11 98/210/11
f 96/194/146 90/213/147 92/214/148
f 98/195/149 96/194/146 92/214/148
f 101/215/11 102/216/11 103/217/11
f 101/215/11 104/218/11 102/216/11
f 103/219/10 105/220/10 106/221/10
f 103/219/10 102/222/10 105/220/10
f 106/223/5 107/224/5 108/225/5
f 106/223/5 105/226/5 107/224/5
f 103/227/150 108/228/151 101/229/152
f 103/227/150 106/230/153 108/228/151
f 108/231/12 104/232/12 101/233/12
f 108/231/12 107/234/12 104/232/12
f 107/235/154 105/236/155 102/237/156
f 104/238/157 107/235/154 102/237/156
